<?xml version="1.0" encoding="UTF-8"?>
<svg id="Layer_2" data-name="Layer 2" xmlns="http://www.w3.org/2000/svg" viewBox="0 0 152.08 47.92">
  <defs>
    <style>
      .cls-1 {
        fill: #2c3583;
      }

      .cls-1, .cls-2 {
        stroke-width: 0px;
      }

      .cls-2 {
        fill: #faea4d;
      }
    </style>
  </defs>
  <g id="Layer_1-2" data-name="Layer 1">
    <path class="cls-2" d="M134.94,47.92l-117.8-4c-9.47,0-17.14-6.69-17.14-14.95v-8.92C0,11.79,7.67,5.1,17.14,5.1L134.94,0c9.47,0,17.14,11.79,17.14,20.05v8.92c0,8.26-7.67,18.95-17.14,18.95Z"/>
    <g>
      <path class="cls-1" d="M23.41,29.96c-.27,0-.6-.02-.99-.05-.39-.04-.79-.15-1.21-.34-.42-.19-.83-.51-1.23-.96v1.18h-3.74v-15.2h3.8v5c.47-.47,1.01-.82,1.6-1.03.59-.21,1.22-.32,1.88-.32,1.09,0,1.99.25,2.69.76.71.51,1.24,1.2,1.59,2.08.35.88.53,1.89.53,3.04s-.18,2.14-.53,3.02c-.35.88-.89,1.57-1.61,2.07-.72.5-1.65.75-2.78.75ZM22.35,26.56c.6,0,1.06-.14,1.38-.41.32-.27.54-.61.67-1.01.12-.4.18-.79.18-1.16s-.07-.73-.21-1.08-.38-.64-.7-.86c-.32-.22-.75-.33-1.3-.33-.52,0-.95.11-1.3.32-.35.21-.61.5-.78.87s-.26.77-.26,1.21c0,.42.08.81.25,1.19.16.38.42.68.76.91.34.23.78.34,1.31.34Z"/>
      <path class="cls-1" d="M35.43,29.96c-1.12,0-2.12-.22-3.02-.67-.89-.44-1.61-1.1-2.14-1.96-.53-.87-.79-1.92-.79-3.17s.27-2.35.81-3.23c.54-.88,1.25-1.55,2.14-2.01.89-.46,1.87-.69,2.94-.69s2.09.24,2.97.71c.88.47,1.58,1.15,2.1,2.04.52.89.78,1.97.78,3.24s-.25,2.28-.75,3.13c-.5.86-1.19,1.51-2.06,1.94-.87.44-1.87.66-2.98.66ZM35.36,26.43c.54,0,.97-.11,1.29-.34.31-.23.54-.52.67-.87s.19-.7.19-1.04-.06-.7-.19-1.07-.35-.69-.65-.95-.74-.39-1.3-.39-.98.13-1.3.39c-.32.26-.55.57-.68.93-.13.36-.19.73-.19,1.08s.07.71.2,1.06c.14.35.36.64.68.86.31.22.74.33,1.29.33Z"/>
      <path class="cls-1" d="M48.33,29.96c-1.12,0-2.12-.22-3.02-.67-.89-.44-1.61-1.1-2.14-1.96-.53-.87-.79-1.92-.79-3.17s.27-2.35.81-3.23c.54-.88,1.25-1.55,2.14-2.01.89-.46,1.87-.69,2.94-.69s2.09.24,2.97.71c.88.47,1.58,1.15,2.1,2.04.52.89.78,1.97.78,3.24s-.25,2.28-.75,3.13c-.5.86-1.19,1.51-2.06,1.94-.87.44-1.87.66-2.98.66ZM48.27,26.43c.54,0,.97-.11,1.29-.34.31-.23.54-.52.67-.87s.19-.7.19-1.04-.06-.7-.19-1.07-.35-.69-.65-.95-.74-.39-1.3-.39-.98.13-1.3.39c-.32.26-.55.57-.68.93-.13.36-.19.73-.19,1.08s.07.71.2,1.06c.14.35.36.64.68.86.31.22.74.33,1.29.33Z"/>
      <path class="cls-1" d="M55.72,29.78v-15.2h3.8v7.88h1.14l2.36-3.99h4.25l-3.5,5.39,3.78,5.93h-4.38l-2.45-3.93h-1.2v3.93h-3.8Z"/>
      <path class="cls-1" d="M78.07,29.96c-.53,0-1.03-.07-1.5-.21-.47-.14-.89-.36-1.26-.64-.36-.29-.65-.64-.87-1.07-.21-.43-.32-.94-.32-1.52,0-.86.18-1.53.55-2.02.37-.49.86-.84,1.48-1.07.62-.23,1.33-.38,2.13-.44s1.62-.1,2.48-.1h.52c0-.27-.06-.52-.19-.73-.13-.21-.31-.39-.55-.51-.24-.13-.53-.19-.87-.19-.24,0-.48.04-.71.11s-.42.17-.57.29c-.15.12-.24.27-.27.44h-3.78c.09-.7.29-1.31.62-1.81.33-.51.74-.92,1.25-1.25.5-.32,1.06-.56,1.69-.72s1.27-.24,1.94-.24c1.66,0,2.92.46,3.77,1.38s1.28,2.28,1.28,4.07v6.08h-3.5v-1.48c-.37.56-.79.95-1.26,1.18-.47.23-.89.37-1.27.41-.38.04-.64.06-.78.06ZM79.1,27.06c.36,0,.71-.09,1.04-.27.34-.18.62-.4.84-.68.22-.27.33-.54.33-.82v-.09h-2.13c-.17,0-.34.02-.49.05-.16.04-.3.09-.42.16-.12.07-.22.17-.29.28-.07.11-.11.26-.11.43,0,.2.05.37.16.5.11.14.25.24.44.31s.39.11.62.11Z"/>
      <path class="cls-1" d="M98.57,29.78c-1,0-1.86-.11-2.57-.32s-1.25-.6-1.63-1.15c-.38-.55-.57-1.35-.57-2.39v-4.06h-1.57v-3.39h1.57v-2.81h3.8v2.81h2.08v3.39h-2.08v3.48c0,.27.05.51.14.72.09.21.36.31.81.31h1.01v3.41h-.99Z"/>
      <path class="cls-1" d="M104.47,29.96c-.53,0-1.03-.07-1.5-.21-.47-.14-.89-.36-1.26-.64-.36-.29-.65-.64-.87-1.07-.21-.43-.32-.94-.32-1.52,0-.86.18-1.53.55-2.02.37-.49.86-.84,1.48-1.07.62-.23,1.33-.38,2.13-.44s1.62-.1,2.48-.1h.52c0-.27-.06-.52-.19-.73-.13-.21-.31-.39-.55-.51-.24-.13-.53-.19-.87-.19-.24,0-.48.04-.71.11s-.42.17-.57.29c-.15.12-.24.27-.27.44h-3.78c.09-.7.29-1.31.62-1.81.33-.51.74-.92,1.25-1.25.5-.32,1.06-.56,1.69-.72s1.27-.24,1.94-.24c1.66,0,2.92.46,3.77,1.38s1.28,2.28,1.28,4.07v6.08h-3.5v-1.48c-.37.56-.79.95-1.26,1.18-.47.23-.89.37-1.27.41-.38.04-.64.06-.78.06ZM105.51,27.06c.36,0,.71-.09,1.04-.27.34-.18.62-.4.84-.68.22-.27.33-.54.33-.82v-.09h-2.13c-.17,0-.34.02-.49.05-.16.04-.3.09-.42.16-.12.07-.22.17-.29.28-.07.11-.11.26-.11.43,0,.2.05.37.16.5.11.14.25.24.44.31s.39.11.62.11Z"/>
      <path class="cls-1" d="M120.45,29.96c-.27,0-.6-.02-.99-.05-.39-.04-.79-.15-1.21-.34-.42-.19-.83-.51-1.23-.96v1.18h-3.74v-15.2h3.8v5c.47-.47,1.01-.82,1.6-1.03.59-.21,1.22-.32,1.88-.32,1.09,0,1.99.25,2.69.76.71.51,1.24,1.2,1.59,2.08.35.88.53,1.89.53,3.04s-.18,2.14-.53,3.02c-.35.88-.89,1.57-1.61,2.07-.72.5-1.65.75-2.78.75ZM119.4,26.56c.6,0,1.06-.14,1.38-.41.32-.27.54-.61.67-1.01.12-.4.18-.79.18-1.16s-.07-.73-.21-1.08-.38-.64-.7-.86c-.32-.22-.75-.33-1.3-.33-.52,0-.95.11-1.3.32-.35.21-.61.5-.78.87s-.26.77-.26,1.21c0,.42.08.81.25,1.19.16.38.42.68.76.91.34.23.78.34,1.31.34Z"/>
      <path class="cls-1" d="M126.95,29.78v-15.2h3.8v15.2h-3.8Z"/>
      <path class="cls-1" d="M138.14,29.96c-1.16,0-2.17-.23-3.04-.7-.87-.46-1.54-1.13-2.02-1.99-.48-.86-.72-1.88-.72-3.07s.24-2.23.73-3.12c.49-.89,1.17-1.59,2.04-2.09.87-.5,1.89-.75,3.05-.75.83,0,1.57.13,2.23.39.66.26,1.22.63,1.7,1.12.47.49.83,1.07,1.08,1.76.25.69.38,1.46.38,2.32,0,.24-.01.48-.03.7s-.06.45-.12.7h-7.3c.03.27.12.53.27.77.15.24.36.44.63.58.27.14.62.21,1.03.21.34,0,.64-.04.89-.12.25-.08.45-.18.61-.31.16-.13.26-.26.3-.39h3.71c-.2.93-.57,1.69-1.11,2.29s-1.18,1.03-1.93,1.3-1.55.41-2.39.41ZM136.19,22.74h3.82c0-.21-.06-.44-.18-.68-.12-.24-.32-.43-.6-.59-.28-.16-.65-.24-1.11-.24s-.81.08-1.09.24c-.29.16-.5.35-.63.59-.14.24-.2.46-.2.68Z"/>
    </g>
  </g>
</svg>