<?xml version="1.0" encoding="UTF-8"?>
<svg id="Layer_2" data-name="Layer 2" xmlns="http://www.w3.org/2000/svg" viewBox="0 0 109.73 42.92">
  <defs>
    <style>
      .cls-1 {
        fill: #2c3583;
      }

      .cls-1, .cls-2 {
        stroke-width: 0px;
      }

      .cls-2 {
        fill: #ffcae0;
      }
    </style>
  </defs>
  <g id="Layer_1-2" data-name="Layer 1">
    <path class="cls-2" d="M97.37,42.92l-85-2c-6.83,0-12.37-6.69-12.37-14.95v-8.92C0,8.79,5.54,2.1,12.37,2.1L97.37,0c6.83,0,12.37,8.79,12.37,17.05v8.92c0,8.26-5.54,16.95-12.37,16.95Z"/>
    <g>
      <path class="cls-1" d="M18.7,26.78l-3.59-11.31h4.12l1.67,6.76,1.87-6.76h3.99l1.85,6.76,1.65-6.76h4.02l-3.59,11.31h-4.1l-1.91-6.63-1.87,6.63h-4.12Z"/>
      <path class="cls-1" d="M40.54,26.96c-1.16,0-2.17-.23-3.04-.7-.87-.46-1.54-1.13-2.02-1.99-.48-.86-.72-1.88-.72-3.07s.24-2.23.73-3.12c.49-.89,1.17-1.59,2.04-2.09.87-.5,1.89-.75,3.05-.75.83,0,1.57.13,2.23.39.66.26,1.22.63,1.7,1.12.47.49.83,1.07,1.08,1.76.25.69.38,1.46.38,2.32,0,.24-.01.48-.03.7s-.06.45-.12.7h-7.3c.03.27.12.53.27.77.15.24.36.44.63.58.27.14.62.21,1.03.21.34,0,.64-.04.89-.12.25-.08.45-.18.61-.31.16-.13.26-.26.3-.39h3.71c-.2.93-.57,1.69-1.11,2.29s-1.18,1.03-1.93,1.3-1.55.41-2.39.41ZM38.58,19.74h3.82c0-.21-.06-.44-.18-.68-.12-.24-.32-.43-.6-.59-.28-.16-.65-.24-1.11-.24s-.81.08-1.09.24c-.29.16-.5.35-.63.59-.14.24-.2.46-.2.68Z"/>
      <path class="cls-1" d="M54.73,26.96c-.27,0-.6-.02-.99-.05-.39-.04-.79-.15-1.21-.34-.42-.19-.83-.51-1.23-.96v1.18h-3.74v-15.2h3.8v5c.47-.47,1.01-.82,1.6-1.03.59-.21,1.22-.32,1.88-.32,1.09,0,1.99.25,2.69.76.71.51,1.24,1.2,1.59,2.08.35.88.53,1.89.53,3.04s-.18,2.14-.53,3.02c-.35.88-.89,1.57-1.61,2.07-.72.5-1.65.75-2.78.75ZM53.68,23.56c.6,0,1.06-.14,1.38-.41.32-.27.54-.61.67-1.01.12-.4.18-.79.18-1.16s-.07-.73-.21-1.08-.38-.64-.7-.86c-.32-.22-.75-.33-1.3-.33-.52,0-.95.11-1.3.32-.35.21-.61.5-.78.87s-.26.77-.26,1.21c0,.42.08.81.25,1.19.16.38.42.68.76.91.34.23.78.34,1.31.34Z"/>
      <path class="cls-1" d="M65.87,26.96c-.56,0-1.12-.06-1.7-.19-.57-.13-1.11-.34-1.6-.64-.49-.3-.91-.71-1.26-1.23-.34-.52-.57-1.18-.69-1.96h3.84c.06.19.16.35.31.49.15.14.34.25.56.33.22.08.46.12.72.12.17,0,.33-.01.46-.04.14-.03.25-.08.35-.14.1-.06.17-.14.23-.23s.08-.18.08-.28c0-.2-.08-.35-.24-.44-.16-.09-.37-.17-.64-.21-.27-.05-.58-.11-.92-.18-.53-.11-1.1-.26-1.71-.44-.61-.18-1.12-.4-1.54-.68-.21-.14-.4-.3-.55-.48-.15-.18-.27-.38-.36-.59-.09-.21-.16-.44-.2-.67-.04-.23-.06-.47-.06-.73,0-.66.15-1.21.44-1.66.29-.45.67-.81,1.14-1.08.46-.27.98-.47,1.55-.59.56-.12,1.12-.18,1.66-.18.8,0,1.55.13,2.24.39s1.27.67,1.74,1.25c.46.57.75,1.33.87,2.28h-3.67c-.03-.26-.17-.46-.42-.6-.25-.14-.55-.21-.91-.21-.14,0-.28.01-.4.04s-.23.06-.32.11c-.09.04-.17.1-.21.17-.05.07-.08.15-.08.24,0,.06.02.12.05.19.04.07.1.14.2.2.1.06.24.13.41.18.47.12.92.21,1.34.3.42.09.85.17,1.28.26.47.09.94.23,1.4.44.46.21.84.52,1.15.93.31.42.46,1,.46,1.74s-.15,1.34-.45,1.83c-.3.49-.7.88-1.19,1.17-.49.29-1.03.49-1.62.62-.59.13-1.17.19-1.74.19Z"/>
      <path class="cls-1" d="M74.2,14.7c-.69,0-1.24-.2-1.66-.61s-.63-.94-.63-1.6.22-1.22.67-1.65c.44-.43.99-.64,1.65-.64s1.17.2,1.61.61c.44.41.67.96.67,1.66s-.21,1.21-.63,1.62c-.42.41-.98.61-1.66.61ZM72.29,26.78v-11.31h3.8v11.31h-3.8Z"/>
      <path class="cls-1" d="M83.61,26.78c-1,0-1.86-.11-2.57-.32s-1.25-.6-1.63-1.15c-.38-.55-.57-1.35-.57-2.39v-4.06h-1.57v-3.39h1.57v-2.81h3.8v2.81h2.08v3.39h-2.08v3.48c0,.27.05.51.14.72.09.21.36.31.81.31h1.01v3.41h-.99Z"/>
      <path class="cls-1" d="M91.29,26.96c-1.16,0-2.17-.23-3.04-.7-.87-.46-1.54-1.13-2.02-1.99-.48-.86-.72-1.88-.72-3.07s.24-2.23.73-3.12c.49-.89,1.17-1.59,2.04-2.09.87-.5,1.89-.75,3.05-.75.83,0,1.57.13,2.23.39.66.26,1.22.63,1.7,1.12.47.49.83,1.07,1.08,1.76.25.69.38,1.46.38,2.32,0,.24-.01.48-.03.7s-.06.45-.12.7h-7.3c.03.27.12.53.27.77.15.24.36.44.63.58.27.14.62.21,1.03.21.34,0,.64-.04.89-.12.25-.08.45-.18.61-.31.16-.13.26-.26.3-.39h3.71c-.2.93-.57,1.69-1.11,2.29s-1.18,1.03-1.93,1.3-1.55.41-2.39.41ZM89.34,19.74h3.82c0-.21-.06-.44-.18-.68-.12-.24-.32-.43-.6-.59-.28-.16-.65-.24-1.11-.24s-.81.08-1.09.24c-.29.16-.5.35-.63.59-.14.24-.2.46-.2.68Z"/>
    </g>
  </g>
</svg>