<?xml version="1.0" encoding="UTF-8"?>
<svg id="Layer_2" data-name="Layer 2" xmlns="http://www.w3.org/2000/svg" viewBox="0 0 91.23 40.82">
  <defs>
    <style>
      .cls-1 {
        fill: #2c3583;
      }

      .cls-1, .cls-2 {
        stroke-width: 0px;
      }

      .cls-2 {
        fill: #edb5c9;
      }
    </style>
  </defs>
  <g id="Layer_1-2" data-name="Layer 1">
    <path class="cls-1" d="M80.95,40.82l-70.67-2c-5.68,0-10.28-6.69-10.28-14.95v-8.92C0,6.69,4.6,0,10.28,0l70.67,1.9c5.68,0,10.28,4.79,10.28,13.05v8.92c0,8.26-4.6,16.95-10.28,16.95Z"/>
    <g>
      <path class="cls-2" d="M16.24,29v-15.63h3.52l.19,1.25c.52-.56,1.04-.94,1.59-1.16s1.16-.32,1.85-.32c1.09,0,2,.26,2.73.78.73.52,1.28,1.22,1.65,2.1.37.88.56,1.86.56,2.95s-.2,2.12-.59,3.01c-.39.89-.97,1.59-1.74,2.1-.77.52-1.7.77-2.8.77-.44,0-.87-.05-1.28-.16-.41-.11-.77-.25-1.1-.42-.32-.17-.58-.36-.78-.56v5.28h-3.8ZM22.42,21.4c.57,0,1.02-.12,1.33-.36.31-.24.53-.54.65-.9.12-.36.18-.7.18-1.03,0-.39-.07-.77-.21-1.16-.14-.39-.38-.71-.7-.96-.32-.25-.76-.38-1.32-.38-.52,0-.94.12-1.29.35-.34.24-.6.54-.77.9-.17.36-.26.75-.26,1.15s.08.76.25,1.13.42.67.77.9c.35.24.81.35,1.36.35Z"/>
      <path class="cls-2" d="M29.91,24.68v-15.2h3.8v4.92c.36-.37.74-.65,1.16-.83.42-.18.82-.3,1.21-.35.39-.06.72-.09.98-.09,1.03,0,1.84.24,2.44.73.59.49,1.02,1.13,1.27,1.94.25.81.38,1.69.38,2.63v6.25h-3.8v-5.93c0-.23-.03-.47-.09-.72-.06-.25-.15-.48-.29-.7-.14-.21-.32-.39-.55-.53-.23-.14-.52-.2-.88-.2-.33,0-.61.06-.85.18-.24.12-.43.29-.57.5-.14.21-.25.46-.31.72s-.1.54-.1.83v5.84h-3.8Z"/>
      <path class="cls-2" d="M48.61,24.85c-1.12,0-2.12-.22-3.02-.67-.89-.44-1.61-1.1-2.14-1.96-.53-.87-.79-1.92-.79-3.17s.27-2.35.81-3.23c.54-.88,1.25-1.55,2.14-2.01.89-.46,1.87-.69,2.94-.69s2.09.24,2.97.71c.88.47,1.58,1.15,2.1,2.04.52.89.78,1.97.78,3.24s-.25,2.28-.75,3.13c-.5.86-1.19,1.51-2.06,1.94-.87.44-1.87.66-2.98.66ZM48.55,21.33c.54,0,.97-.11,1.29-.34.31-.23.54-.52.67-.87s.19-.7.19-1.04-.06-.7-.19-1.07-.35-.69-.65-.95-.74-.39-1.3-.39-.98.13-1.3.39c-.32.26-.55.57-.68.93-.13.36-.19.73-.19,1.08s.07.71.2,1.06c.14.35.36.64.68.86.31.22.74.33,1.29.33Z"/>
      <path class="cls-2" d="M56,24.68v-11.31h3.5l.21,1.03c.36-.37.74-.65,1.15-.83.41-.18.81-.3,1.19-.35.39-.06.72-.09.99-.09,1.06,0,1.89.24,2.5.73.61.49,1.04,1.13,1.3,1.93.26.8.39,1.68.39,2.64v6.25h-3.8v-5.93c0-.23-.02-.47-.08-.72-.05-.25-.14-.48-.26-.7-.12-.21-.29-.39-.5-.53-.21-.14-.49-.2-.84-.2-.44,0-.81.1-1.11.3-.29.2-.51.47-.64.81-.14.34-.2.71-.2,1.13v5.84h-3.8Z"/>
      <path class="cls-2" d="M74.53,24.85c-1.16,0-2.17-.23-3.04-.7-.87-.46-1.54-1.13-2.02-1.99-.48-.86-.72-1.88-.72-3.07s.24-2.23.73-3.12c.49-.89,1.17-1.59,2.04-2.09.87-.5,1.89-.75,3.05-.75.83,0,1.57.13,2.23.39.66.26,1.22.63,1.7,1.12.47.49.83,1.07,1.08,1.76.25.69.38,1.46.38,2.32,0,.24-.01.48-.03.7s-.06.45-.12.7h-7.3c.03.27.12.53.27.77.15.24.36.44.63.58.27.14.62.21,1.03.21.34,0,.64-.04.89-.12.25-.08.45-.18.61-.31.16-.13.26-.26.3-.39h3.71c-.2.93-.57,1.69-1.11,2.29s-1.18,1.03-1.93,1.3-1.55.41-2.39.41ZM72.57,17.64h3.82c0-.21-.06-.44-.18-.68-.12-.24-.32-.43-.6-.59-.28-.16-.65-.24-1.11-.24s-.81.08-1.09.24c-.29.16-.5.35-.63.59-.14.24-.2.46-.2.68Z"/>
    </g>
  </g>
</svg>