<?xml version="1.0" encoding="UTF-8"?>
<svg id="Layer_2" data-name="Layer 2" xmlns="http://www.w3.org/2000/svg" viewBox="0 0 82 32.12">
  <defs>
    <style>
      .cls-1 {
        fill: #f4d756;
      }

      .cls-2 {
        fill: #221f20;
      }
    </style>
  </defs>
  <g id="Layer_1-2" data-name="Layer 1">
    <path class="cls-1" d="m72.76,32.12H9.24c-5.1,0-9.24-5.25-9.24-11.74v-7C0,6.9,4.14,1.65,9.24,1.65l63.52-1.65c5.1,0,9.24,6.9,9.24,13.38v7c0,6.48-4.14,11.74-9.24,11.74Z"/>
    <g>
      <path class="cls-2" d="m18.31,22.75c-1.19,0-2.23-.25-3.11-.75s-1.56-1.21-2.05-2.13c-.48-.92-.73-2.01-.73-3.27,0-.94.14-1.79.41-2.54s.67-1.38,1.19-1.91,1.14-.93,1.86-1.21,1.53-.41,2.42-.41,1.77.16,2.54.46c.77.31,1.41.79,1.92,1.43s.83,1.47.97,2.47h-3.02c-.07-.36-.2-.65-.4-.86-.2-.21-.44-.37-.74-.47-.3-.1-.64-.15-1.02-.15-.56,0-1.03.1-1.42.29-.38.19-.69.45-.92.77-.23.32-.4.67-.5,1.06s-.15.78-.15,1.17c0,.53.09,1.04.28,1.52.19.49.49.88.91,1.19s.99.46,1.71.46c.36,0,.7-.04,1.03-.13.33-.09.6-.23.83-.43.22-.2.36-.45.42-.77h-2.81v-2.56h6.02v.44c0,1.34-.2,2.48-.61,3.42-.4.94-1.02,1.67-1.85,2.17-.83.5-1.89.75-3.19.75Z"/>
      <path class="cls-2" d="m25.55,22.61v-11.93h3.05v4.63h4.33v-4.63h3.05v11.93h-3.05v-4.5h-4.33v4.5h-3.05Z"/>
      <path class="cls-2" d="m38.24,22.61v-11.93h9v2.83h-5.95v1.82h4.9v2.7h-4.9v1.77h5.95v2.81h-9Z"/>
      <path class="cls-2" d="m48.84,22.61v-11.93h2.85l5.04,6.83v-6.83h3.05v11.93h-2.76l-5.12-6.72v6.72h-3.05Z"/>
      <path class="cls-2" d="m64.53,22.61v-9.1h-3.54v-2.83h10.15v2.83h-3.56v9.1h-3.05Z"/>
    </g>
  </g>
</svg>