<?xml version="1.0" encoding="UTF-8"?>
<svg id="Layer_2" data-name="Layer 2" xmlns="http://www.w3.org/2000/svg" viewBox="0 0 78.35 68.43">
  <defs>
    <style>
      .cls-1 {
        fill: #edb5c9;
      }

      .cls-2 {
        fill: #2c3583;
      }
    </style>
  </defs>
  <g id="Layer_1-2" data-name="Layer 1">
    <path class="cls-2" d="m69.47,68.43H8.87C-1.21,66.55.05,57.24.05,43.43v-14.91c0-13.8-1.26-23.77,8.82-25L69.47.01c10.22-.53,8.82,14.7,8.82,28.51v14.91c0,13.8.8,24.92-8.82,25Z"/>
    <path class="cls-1" d="m35.52,15.8c4.93-.18,9.66-.61,13.66-.61.62,0,1.24,0,1.84.16,1.53.42,2.69,1.77,2.89,3.35.16,1.32-2.23,3.46-3.18,4.37-1.38,1.33-2.8,2.63-4.2,3.94-1.61,1.51-3.22,3.02-4.83,4.53-.77.73-1.54,1.45-2.32,2.17-.16.14-.21.29-.21.5,0,5.58,0,11.16,0,16.74,0,.21,0,.42,0,.63,0,.67-.54,1.23-1.17,1.24-.63.01-1.23-.58-1.25-1.23,0-.02,0-.03,0-.05,0-5.65-.01-11.3-.02-16.95,0-.45,0-.9,0-1.35,0-.25.06-.43.26-.61,2.4-2.24,4.8-4.5,7.2-6.75,1.55-1.45,3.11-2.9,4.68-4.34.36-.34.65-.71.69-1.22.05-.72-.49-1.7-1.49-1.7-8.47,0-16.95,0-25.42,0-.36,0-.71-.02-1.03.19-.87.56-1.04,1.73-.32,2.46.65.66,1.34,1.28,2.02,1.92,1.84,1.75,3.67,3.5,5.51,5.25,1.38,1.32,2.77,2.64,4.16,3.95.23.22.33.44.34.77.03,4.41.06,8.82.1,13.23,0,.86-.67,1.42-1.5,1.26-.5-.1-.9-.57-.91-1.15-.02-1.09-.01-2.18-.02-3.27-.02-3.05-.04-6.1-.06-9.15,0-.21-.03-.37-.2-.53-2.59-2.44-5.17-4.89-7.75-7.35-1.1-1.05-2.19-2.1-3.28-3.15-2.08-1.99-1.37-5.3.99-6.46.55-.27,1.13-.41,1.74-.42,1.3,0,2.6-.01,3.9-.01,2.96,0,4.55-.28,7.5-.28,0,0,1.69-.11,1.69-.11Z"/>
    <path class="cls-1" d="m48.81,38.95c-1.59,0-3.17,0-4.76,0-.37,0-.71-.06-.99-.31-.38-.33-.52-.8-.36-1.28.16-.49.62-.82,1.17-.84.34-.01.68,0,1.02,0,2.82,0,5.49-.35,8.31-.35.17,0,.34.02.51.03.74.03,1.14.76,1.12,1.23-.03.62-.39,1.49-1.05,1.5-.94.02-1.89.01-2.83.02-.71,0-1.42,0-2.13,0h0Z"/>
    <path class="cls-1" d="m48.8,52.73c-1.56,0-3.11,0-4.67,0-.21,0-.44-.01-.64-.07-.52-.14-.89-.67-.85-1.19.04-.57.45-1.03,1-1.12.14-.02.28-.03.42-.03,3.17,0,5.9-.39,9.06-.39.36,0,.71.05,1,.3.37.32.96,1.2.82,1.63-.17.51-.58.83-1.14.87-.25.02-.5.01-.74.01-1.42,0-2.83,0-4.25,0h0Z"/>
    <path class="cls-1" d="m47.74,45.91c-3.41.14-2.32.16-3.97.15-.77,0-1.27-.62-1.17-1.38.07-.52.58-1.18,1.13-1.24.14-.01.28-.02.42-.02,3.09,0,6.18,0,9.26,0,.2,0,.4,0,.6.04.58.12,1,.66.97,1.22-.04.59-.51,1.09-1.13,1.12-.51.03-1.02.01-1.53.01-1.18,0-1.21-.02-2.39-.02,0,0-2.19.11-2.19.1Z"/>
  </g>
</svg>