<?xml version="1.0" encoding="UTF-8"?>
<svg id="Layer_2" data-name="Layer 2" xmlns="http://www.w3.org/2000/svg" viewBox="0 0 30.64 31.91">
  <defs>
    <style>
      .cls-1 {
        fill: #2c3583;
      }
    </style>
  </defs>
  <g id="Layer_1-2" data-name="Layer 1">
    <path class="cls-1" d="m.09,8.24H.09C.09,4.24,3.32,1,7.32,1L23.4,0c4,0,7.24,4.24,7.24,8.24h0s-30.55,0-30.55,0Z"/>
    <path class="cls-1" d="m30.63,23.67h0c0,4-3.24,7.24-7.24,7.24l-16.08,1C3.32,31.91.08,27.67.08,23.67H.08s30.55,0,30.55,0Z"/>
    <path class="cls-1" d="m0,16.41v-1.25c0-.91.74-1.65,1.65-1.65h27.25c.91,0,1.65.74,1.65,1.65v1.25c0,.91-.74,1.65-1.65,1.65H1.65c-.91,0-1.65-.74-1.65-1.65Z"/>
  </g>
</svg>