<?xml version="1.0" encoding="UTF-8"?>
<svg id="Layer_2" data-name="Layer 2" xmlns="http://www.w3.org/2000/svg" viewBox="0 0 32.52 44.39">
    <defs>
        <style>
            .cls-1 {
            fill: #fff;
            }

            .cls-2 {
            fill: #ffea00;
            }
        </style>
    </defs>
    <g id="Layer_1-2" data-name="Layer 1">
        <g>
            <path class="cls-2" d="m23.89,32.76c.96-1.51,1.93-3.02,2.89-4.53.92-1.46,1.91-2.88,2.74-4.39,1.75-3.16,3.52-7.79,2.86-11.33-1.03-5.54-4.19-9.47-9.28-11.83C21.64,0,18.87-.17,17.31.16l-2.74.46c-1.05.2-2.13.33-3.16.62-3.22.92-5.88,2.72-7.96,5.34C1,9.67-.14,13.21.01,17.15c.11,2.76.93,5.32,2.41,7.66,1.62,2.56,3.26,5.1,4.89,7.65.07.1.12.21.2.35l.46.73h0s1.4,2.34,1.52,2.32h0c1.62,2.56,3.25,5.11,4.87,7.66.46.73,1.04,1.04,1.69.79.38-.15.76-.47.98-.82,1.64-2.51,3.24-5.04,4.83-7.57"/>
            <path class="cls-1" d="m21.66,16.26c0,3.44-2.79,6.23-6.23,6.23s-6.23-2.79-6.23-6.23,2.85-5.58,6.23-6.23c4.17-.81,6.23,2.79,6.23,6.23Z"/>
        </g>
    </g>
</svg>