<?xml version="1.0" encoding="UTF-8"?>
<svg id="Layer_2" data-name="Layer 2" xmlns="http://www.w3.org/2000/svg" viewBox="0 0 158.08 100.89">
  <defs>
    <style>
      .cls-1 {
        fill: #2c3583;
      }
    </style>
  </defs>
  <g id="Layer_1-2" data-name="Layer 1">
    <path class="cls-1" d="m11.7,1.61c-2.12.87-3.68,2.26-4.7,4.16-1.02,1.9-1.53,4.35-1.53,7.36v3.06H0v11.52h5.47v26.91h12.91v-26.91h8.9v-11.52h-8.9v-1.75c0-.58.1-1.08.29-1.49.19-.41.51-.72.95-.91.44-.19,1-.29,1.68-.29h5.98V.3h-7.66c-3.16,0-5.8.44-7.91,1.31Z"/>
    <path class="cls-1" d="m44.84,42.12c-1.07-.75-1.84-1.73-2.3-2.92-.46-1.19-.69-2.39-.69-3.61s.22-2.44.66-3.68c.44-1.24,1.2-2.3,2.3-3.17.96-.77,48.61-1.18,50.15-1.27v-12.05c-3.39.09-52.89.85-55.73,2.32-3.01,1.56-5.43,3.83-7.26,6.82-1.82,2.99-2.73,6.65-2.73,10.97s.9,7.81,2.7,10.76c1.8,2.94,4.22,5.17,7.25,6.67,2.8,1.39,54.01,2.13,57.46,2.24v-11.97c-1.54-.08-50.87-.43-51.8-1.1Z"/>
    <path class="cls-1" d="m103.14,17.8c-2.99-1.6-6.36-2.41-10.1-2.41-.04,0-.07,0-.11,0v12.04s.07,0,.11,0c1.9,0,3.37.44,4.41,1.31,1.04.88,1.79,1.94,2.22,3.21.44,1.26.66,2.48.66,3.65s-.22,2.35-.66,3.54c-.44,1.19-1.19,2.18-2.26,2.95-1.07.78-2.53,1.17-4.38,1.17-.04,0-.07,0-.11,0v11.96c.11,0,.22,0,.33,0,3.79,0,7.17-.74,10.14-2.22,2.96-1.48,5.3-3.68,7-6.6,1.7-2.92,2.55-6.47,2.55-10.65s-.89-8-2.66-11.01c-1.77-3.01-4.16-5.32-7.15-6.93Z"/>
    <path class="cls-1" d="m145.18,18.9c-.68-.78-1.53-1.42-2.55-1.93-1.02-.51-2.13-.9-3.32-1.17-1.19-.27-2.44-.4-3.76-.4-3.99,0-7.36.84-10.14,2.52s-4.89,4.01-6.34,7c-1.46,2.99-2.19,6.45-2.19,10.39,0,3.6.64,6.9,1.93,9.92,1.29,3.01,3.23,5.43,5.83,7.26,2.6,1.82,5.87,2.73,9.81,2.73,1.51,0,2.92-.15,4.23-.44,1.31-.29,2.54-.73,3.68-1.31,1.14-.58,2.18-1.31,3.1-2.19v3.35h12.61V0h-12.91v18.9Zm-.77,20.31c-.51,1.24-1.34,2.26-2.48,3.06-1.14.8-2.69,1.2-4.63,1.2-1.36,0-2.53-.22-3.5-.66-.97-.44-1.76-1.03-2.37-1.79-.61-.75-1.05-1.6-1.31-2.55-.27-.95-.4-1.91-.4-2.88,0-1.26.23-2.54.69-3.83.46-1.29,1.25-2.37,2.37-3.25,1.12-.87,2.65-1.31,4.59-1.31s3.41.4,4.56,1.2c1.14.8,1.97,1.82,2.48,3.06.51,1.24.77,2.54.77,3.9s-.26,2.59-.77,3.83Z"/>
    <path class="cls-1" d="m26.78,88.02c-.97.75-2.24,1.13-3.79,1.13s-2.89-.39-3.86-1.17c-.97-.78-1.68-1.77-2.11-2.99-.44-1.21-.66-2.48-.66-3.79,0-1.17.19-2.39.58-3.68.39-1.29,1.07-2.38,2.04-3.28.97-.9,2.33-1.35,4.08-1.35,1.41,0,2.61.36,3.61,1.09,1,.73,1.64,1.8,1.93,3.21h12.4c-.1-3.45-.92-6.37-2.48-8.75-1.56-2.38-3.67-4.2-6.34-5.47-2.67-1.26-5.74-1.9-9.19-1.9-3.84,0-7.22.79-10.14,2.37-2.92,1.58-5.19,3.86-6.82,6.85-1.63,2.99-2.44,6.62-2.44,10.9s.79,7.67,2.37,10.61c1.58,2.94,3.8,5.19,6.67,6.74,2.87,1.56,6.25,2.33,10.14,2.33,3.4,0,6.49-.61,9.26-1.82,2.77-1.21,5.01-3,6.71-5.36,1.7-2.36,2.6-5.29,2.7-8.79h-12.83c-.24,1.31-.85,2.35-1.82,3.1Z"/>
    <polygon class="cls-1" points="46.47 100.31 59.37 100.31 59.37 57.95 46.47 57.29 46.47 100.31"/>
    <path class="cls-1" d="m89.78,82.22c0,.97-.09,2.01-.26,3.1-.17,1.09-.61,2.01-1.31,2.74-.71.73-1.86,1.09-3.46,1.09-1.41,0-2.54-.32-3.39-.95-.85-.63-1.45-1.47-1.79-2.52-.34-1.04-.51-2.2-.51-3.46v-20.34h-12.91v21.36c0,5.88,1.62,10.29,4.85,13.23,3.23,2.94,7.79,4.41,13.67,4.41,5.49,0,9.85-1.37,13.09-4.12,3.23-2.75,4.85-7.26,4.85-13.53v-21.36h-12.83v20.34Z"/>
    <path class="cls-1" d="m148.66,70.74c-1.19-2.99-2.99-5.35-5.4-7.07-2.41-1.73-5.46-2.59-9.15-2.59-2.24,0-4.36.37-6.38,1.09-2.02.73-3.83,1.9-5.43,3.5v-10.37l-12.91-1.32v46.33h12.69v-4.01c1.36,1.51,2.76,2.59,4.19,3.24,1.43.66,2.81,1.05,4.12,1.17,1.31.12,2.43.18,3.35.18,3.84,0,6.99-.85,9.44-2.55,2.45-1.7,4.28-4.05,5.47-7.04,1.19-2.99,1.79-6.4,1.79-10.24s-.6-7.33-1.79-10.32Zm-11.52,13.82c-.41,1.36-1.17,2.5-2.26,3.43-1.09.92-2.66,1.39-4.7,1.39-1.8,0-3.28-.39-4.45-1.17-1.17-.78-2.03-1.81-2.59-3.1-.56-1.29-.84-2.64-.84-4.05,0-1.51.29-2.88.88-4.12.58-1.24,1.47-2.22,2.66-2.95,1.19-.73,2.66-1.09,4.41-1.09,1.85,0,3.32.38,4.41,1.13,1.09.75,1.88,1.73,2.37,2.92.49,1.19.73,2.42.73,3.68s-.21,2.58-.62,3.94Z"/>
  </g>
</svg>