<?xml version="1.0" encoding="UTF-8"?>
<svg id="Layer_2" data-name="Layer 2" xmlns="http://www.w3.org/2000/svg" viewBox="0 0 119.05 75.98">
  <defs>
    <style>
      .cls-1 {
        fill: #fff;
      }
    </style>
  </defs>
  <g id="Layer_1-2" data-name="Layer 1">
    <path class="cls-1" d="m8.81,1.22c-1.59.66-2.77,1.7-3.54,3.13-.77,1.43-1.15,3.28-1.15,5.55v2.31H0v8.68h4.12v20.26h9.72v-20.26h6.7v-8.68h-6.7v-1.32c0-.44.07-.81.22-1.13.15-.31.38-.54.71-.69.33-.15.75-.22,1.26-.22h4.5V.23h-5.77c-2.38,0-4.37.33-5.96.99Z"/>
    <path class="cls-1" d="m33.77,31.72c-.81-.57-1.38-1.3-1.73-2.2-.35-.9-.52-1.8-.52-2.72s.16-1.84.49-2.77c.33-.93.91-1.73,1.73-2.39.72-.58,36.61-.89,37.77-.96v-9.08c-2.55.07-39.83.64-41.97,1.74-2.27,1.17-4.09,2.88-5.46,5.13-1.37,2.25-2.06,5.01-2.06,8.26s.68,5.89,2.03,8.1c1.35,2.22,3.18,3.89,5.46,5.02,2.11,1.05,40.67,1.6,43.27,1.69v-9.02c-1.16-.06-38.31-.33-39.01-.83Z"/>
    <path class="cls-1" d="m77.67,13.41c-2.25-1.21-4.79-1.81-7.61-1.81-.03,0-.05,0-.08,0v9.06s.05,0,.08,0c1.43,0,2.53.33,3.32.99.79.66,1.35,1.46,1.67,2.42.33.95.49,1.87.49,2.75s-.16,1.77-.49,2.66c-.33.9-.9,1.64-1.7,2.22-.81.59-1.9.88-3.29.88-.03,0-.05,0-.08,0v9c.08,0,.16,0,.25,0,2.86,0,5.4-.56,7.63-1.67,2.23-1.12,3.99-2.77,5.27-4.97,1.28-2.2,1.92-4.87,1.92-8.02s-.67-6.02-2-8.29c-1.34-2.27-3.13-4.01-5.38-5.22Z"/>
    <path class="cls-1" d="m109.33,14.23c-.51-.59-1.15-1.07-1.92-1.45-.77-.38-1.6-.68-2.5-.88-.9-.2-1.84-.3-2.83-.3-3,0-5.55.63-7.63,1.89s-3.68,3.02-4.78,5.27c-1.1,2.25-1.65,4.86-1.65,7.82,0,2.71.48,5.2,1.46,7.47.97,2.27,2.43,4.09,4.39,5.46,1.96,1.37,4.42,2.06,7.39,2.06,1.13,0,2.2-.11,3.18-.33.99-.22,1.91-.55,2.77-.99.86-.44,1.64-.99,2.33-1.65v2.53h9.5V0h-9.72v14.23Zm-.58,15.29c-.38.93-1.01,1.7-1.87,2.31-.86.6-2.02.91-3.49.91-1.03,0-1.9-.16-2.64-.49-.73-.33-1.33-.78-1.78-1.35-.46-.57-.79-1.21-.99-1.92-.2-.71-.3-1.44-.3-2.17,0-.95.17-1.91.52-2.88.35-.97.94-1.78,1.78-2.44.84-.66,1.99-.99,3.46-.99s2.57.3,3.43.91c.86.6,1.48,1.37,1.87,2.31.38.93.58,1.91.58,2.94s-.19,1.95-.58,2.88Z"/>
    <path class="cls-1" d="m20.17,66.29c-.73.57-1.68.85-2.86.85s-2.18-.29-2.91-.88c-.73-.59-1.26-1.34-1.59-2.25-.33-.91-.49-1.87-.49-2.86,0-.88.15-1.8.44-2.77.29-.97.8-1.79,1.54-2.47.73-.68,1.76-1.02,3.08-1.02,1.06,0,1.97.27,2.72.82.75.55,1.24,1.35,1.46,2.42h9.34c-.07-2.6-.7-4.8-1.87-6.59-1.17-1.79-2.76-3.17-4.78-4.12-2.01-.95-4.32-1.43-6.92-1.43-2.89,0-5.44.6-7.63,1.79-2.2,1.19-3.91,2.91-5.13,5.16-1.23,2.25-1.84,4.99-1.84,8.21s.59,5.78,1.78,7.99c1.19,2.21,2.86,3.91,5.02,5.08,2.16,1.17,4.7,1.76,7.63,1.76,2.56,0,4.89-.46,6.97-1.37,2.09-.91,3.77-2.26,5.05-4.04,1.28-1.78,1.96-3.98,2.03-6.62h-9.66c-.18.99-.64,1.77-1.37,2.33Z"/>
    <polygon class="cls-1" points="34.99 75.54 44.71 75.54 44.71 43.64 34.99 43.14 34.99 75.54"/>
    <path class="cls-1" d="m67.61,61.92c0,.73-.06,1.51-.19,2.33-.13.82-.46,1.51-.99,2.06-.53.55-1.4.82-2.61.82-1.06,0-1.91-.24-2.55-.71-.64-.48-1.09-1.11-1.35-1.89-.26-.79-.38-1.66-.38-2.61v-15.32h-9.72v16.09c0,4.43,1.22,7.75,3.65,9.97,2.43,2.22,5.87,3.32,10.3,3.32,4.14,0,7.42-1.03,9.86-3.1,2.43-2.07,3.65-5.46,3.65-10.19v-16.09h-9.66v15.32Z"/>
    <path class="cls-1" d="m111.95,53.27c-.9-2.25-2.25-4.03-4.06-5.33-1.81-1.3-4.11-1.95-6.89-1.95-1.68,0-3.29.28-4.8.82-1.52.55-2.88,1.43-4.09,2.64v-7.81l-9.72-1v34.89h9.55v-3.02c1.02,1.13,2.08,1.95,3.16,2.44,1.08.49,2.11.79,3.1.88.99.09,1.83.14,2.53.14,2.89,0,5.26-.64,7.11-1.92,1.85-1.28,3.22-3.05,4.12-5.3.9-2.25,1.35-4.82,1.35-7.71s-.45-5.52-1.35-7.77Zm-8.68,10.41c-.31,1.03-.88,1.89-1.7,2.58-.82.7-2,1.04-3.54,1.04-1.35,0-2.47-.29-3.35-.88-.88-.59-1.53-1.36-1.95-2.33-.42-.97-.63-1.98-.63-3.05,0-1.13.22-2.17.66-3.1.44-.93,1.11-1.67,2-2.22.9-.55,2-.82,3.32-.82,1.39,0,2.5.28,3.32.85.82.57,1.42,1.3,1.78,2.2.37.9.55,1.82.55,2.77s-.16,1.94-.47,2.97Z"/>
  </g>
</svg>