<?xml version="1.0" encoding="UTF-8"?>
<svg id="Layer_2" data-name="Layer 2" xmlns="http://www.w3.org/2000/svg" viewBox="0 0 78.35 68.43">
  <defs>
    <style>
      .cls-1 {
        fill: #edb5c9;
      }

      .cls-2 {
        fill: #2c3583;
      }
    </style>
  </defs>
  <g id="Layer_1-2" data-name="Layer 1">
    <path class="cls-2" d="m69.47,68.43H8.87C-1.21,66.55.05,57.24.05,43.43v-14.91c0-13.8-1.26-23.77,8.82-25L69.47.01c10.22-.53,8.82,14.7,8.82,28.51v14.91c0,13.8.8,24.92-8.82,25Z"/>
    <path class="cls-1" d="m39.52,12.41c1.28-.27,3.56-.12,4.75.43,4.18,1.94,6.77,5.16,7.61,9.7.54,2.91-.91,6.7-2.34,9.29-.69,1.24-1.49,2.41-2.25,3.6-.78,1.24-1.58,2.47-2.37,3.71.06.03.09.06.12.07.07.02.15.03.23.04,2.22.39,4.4.91,6.45,1.86,1.84.86,3.5,1.92,4.05,4.07v1.09c-.34,1.43-1.23,2.47-2.45,3.17-1.06.61-2.18,1.17-3.33,1.57-3.39,1.2-6.92,1.6-10.49,1.72-2.22.07-4.44-.02-6.66-.3-2.49-.31-4.94-.8-7.29-1.72-1.4-.55-2.74-1.22-3.77-2.35-1.06-1.15-1.48-2.47-.87-3.98.44-1.09,1.3-1.84,2.26-2.45,1.84-1.17,3.9-1.8,6.01-2.29.75-.18,1.52-.32,2.3-.48-.06-.11-.11-.21-.16-.29-1.34-2.09-2.68-4.18-4.01-6.27-1.22-1.92-1.89-4.01-1.98-6.28-.13-3.23.81-6.13,2.81-8.67,1.7-2.15,3.88-3.63,6.53-4.38.84-.24,1.73-.34,2.59-.51m.93,32.51c.11-.17.19-.28.27-.4,2.77-4.34,5.54-8.68,8.3-13.02.34-.54.7-1.07.95-1.65,1.81-4.23,1.26-9.15-1.77-12.61-2.36-2.69-5.45-2.79-9-2.39-3.03.34-5.44,1.84-7.26,4.29-2.5,3.37-2.68,8.25-.43,11.78,1.75,2.74,3.5,5.47,5.25,8.21,1.22,1.9,2.43,3.81,3.68,5.78Zm.92,5.14c.94-.08,2.82-.2,4.69-.4,2.13-.23,4.22-.71,6.22-1.51,1.08-.43,2.13-.92,2.93-1.8.61-.68.63-1.31-.02-1.96-.45-.44-.96-.84-1.51-1.15-2.34-1.3-4.93-1.8-7.54-2.19-.31-.05-.46.04-.62.3-1.31,2.08-2.62,4.15-3.96,6.21-.18.28-.49.55-.81.67-.54.21-1.01-.05-1.39-.65-1.34-2.09-2.67-4.18-4-6.28-.13-.21-.26-.31-.52-.25-.66.13-1.33.2-2,.33-1.95.38-3.88.87-5.62,1.87-.57.33-1.1.74-1.56,1.21-.58.59-.55,1.22,0,1.84.25.28.54.53.84.75,1.23.85,2.62,1.35,4.05,1.76,3.22.92,6.53,1.21,10.81,1.26Z"/>
    <path class="cls-1" d="m38.18,31.61c-3.22,0-5.83-2.64-5.82-5.88,0-3.24,2.64-5.85,5.9-5.83,3.22.01,5.82,2.65,5.8,5.9-.01,3.22-2.64,5.82-5.88,5.82Zm.05-2.34c2.02-.09,3.45-1.56,3.49-3.52.03-1.9-1.6-3.53-3.5-3.5-2.03.04-3.52,1.55-3.5,3.53.02,2.04,1.57,3.42,3.51,3.49Z"/>
  </g>
</svg>