<?xml version="1.0" encoding="UTF-8"?>
<svg id="Layer_2" data-name="Layer 2" xmlns="http://www.w3.org/2000/svg" xmlns:xlink="http://www.w3.org/1999/xlink" viewBox="0 0 297.51 292.65">
  <defs>
    <style>
      .cls-1 {
        fill: none;
      }

      .cls-2 {
        clip-path: url(#clippath);
      }

      .cls-3 {
        fill: #edb5c9;
      }

      .cls-4 {
        fill: #2c3583;
      }
    </style>
    <clipPath id="clippath">
      <path class="cls-1" d="m275.86,287.24l-229.46,5.4c-25.45.6-46.4-19.87-46.4-45.32V22.17C0,9.64,10.39-.41,22.92.01l253.16,8.51c11.95.4,21.43,10.2,21.43,22.16v234.39c0,12.04-9.61,21.88-21.65,22.17Z"/>
    </clipPath>
  </defs>
  <g id="Layer_1-2" data-name="Layer 1">
    <g class="cls-2">
      <image width="822" height="798" transform="translate(-12.7 -12.48) scale(.39)" xlink:href="../../../Screenshot 2023-08-21 at 18.18.30.png"/>
    </g>
    <path class="cls-3" d="m207.82,156.92l-118.77-2c-15.71,0-28.45-12.74-28.45-28.45v-16.98c0-15.71,12.74-25.45,28.45-25.45l118.77-3c15.71,0,28.45,12.74,28.45,28.45v16.98c0,15.71-12.74,30.45-28.45,30.45Z"/>
    <g>
      <path class="cls-4" d="m98.58,136.2c-4.19,0-7.44-1.05-9.74-3.14-2.3-2.09-3.45-5.24-3.45-9.43v-15.22h9.19v14.49c0,.9.12,1.72.36,2.47.24.75.67,1.34,1.27,1.79.61.45,1.41.68,2.42.68,1.14,0,1.96-.26,2.47-.78.5-.52.81-1.17.93-1.95.12-.78.18-1.51.18-2.21v-14.49h9.14v15.22c0,4.47-1.15,7.68-3.45,9.63-2.3,1.96-5.41,2.93-9.32,2.93Z"/>
      <path class="cls-4" d="m116.19,135.78v-27.37h8.46l.52,2.49c.87-.9,1.79-1.57,2.78-2,.99-.43,1.95-.72,2.88-.86.93-.14,1.73-.21,2.39-.21,2.56,0,4.58.59,6.05,1.77,1.47,1.18,2.52,2.74,3.14,4.67.62,1.94.94,4.07.94,6.39v15.11h-9.19v-14.33c0-.55-.06-1.13-.18-1.74-.12-.6-.33-1.17-.62-1.69-.29-.52-.7-.94-1.22-1.27-.52-.33-1.19-.49-2.03-.49-1.07,0-1.97.24-2.67.73-.71.49-1.23,1.13-1.56,1.95-.33.81-.49,1.72-.49,2.73v14.12h-9.19Z"/>
      <path class="cls-4" d="m160.69,136.2c-2.77,0-5.18-.55-7.22-1.66-2.04-1.11-3.63-2.71-4.75-4.8-1.13-2.09-1.69-4.61-1.69-7.56s.58-5.63,1.74-7.76c1.16-2.13,2.78-3.76,4.86-4.88s4.48-1.69,7.22-1.69c2.46,0,4.64.45,6.54,1.35,1.9.9,3.41,2.2,4.52,3.89,1.11,1.7,1.7,3.77,1.77,6.23h-8.83c-.21-1-.67-1.77-1.38-2.29-.71-.52-1.57-.78-2.57-.78-1.25,0-2.22.32-2.91.96-.69.64-1.18,1.42-1.45,2.34-.28.92-.42,1.79-.42,2.62,0,.94.16,1.84.47,2.7s.81,1.58,1.51,2.13c.69.55,1.61.83,2.75.83s2.01-.27,2.7-.8c.69-.54,1.12-1.27,1.3-2.21h9.14c-.07,2.49-.71,4.58-1.92,6.26-1.21,1.68-2.8,2.95-4.78,3.82-1.97.87-4.17,1.3-6.6,1.3Z"/>
      <path class="cls-4" d="m177.57,135.78v-36.77h9.19v36.77h-9.19Z"/>
      <path class="cls-4" d="m204.62,136.2c-2.8,0-5.25-.56-7.35-1.69-2.1-1.12-3.72-2.73-4.88-4.8-1.16-2.08-1.74-4.55-1.74-7.43s.59-5.39,1.77-7.56c1.18-2.16,2.82-3.85,4.93-5.06s4.57-1.82,7.37-1.82c2.01,0,3.81.31,5.4.94,1.59.62,2.96,1.52,4.1,2.7s2.02,2.6,2.62,4.26c.61,1.66.91,3.53.91,5.61,0,.59-.03,1.15-.08,1.69-.05.54-.15,1.1-.29,1.69h-17.66c.07.66.29,1.28.65,1.87.36.59.87,1.06,1.53,1.4.66.35,1.49.52,2.49.52.83,0,1.55-.09,2.16-.29.6-.19,1.1-.44,1.48-.75.38-.31.62-.62.73-.94h8.98c-.49,2.25-1.38,4.09-2.67,5.53s-2.86,2.48-4.67,3.14c-1.82.66-3.75.99-5.79.99Zm-4.73-17.45h9.24c0-.52-.15-1.06-.44-1.64-.29-.57-.78-1.05-1.45-1.43-.67-.38-1.57-.57-2.67-.57s-1.96.19-2.65.57c-.69.38-1.2.86-1.53,1.43-.33.57-.49,1.12-.49,1.64Z"/>
      <path class="cls-3" d="m102.84,198.51c-.66,0-1.45-.04-2.39-.13-.93-.09-1.91-.36-2.93-.83-1.02-.47-2.02-1.24-2.99-2.31v2.86h-9.04v-36.77h9.19v12.1c1.14-1.14,2.43-1.97,3.87-2.49,1.44-.52,2.95-.78,4.54-.78,2.63,0,4.8.62,6.52,1.84,1.71,1.23,2.99,2.91,3.84,5.04.85,2.13,1.27,4.58,1.27,7.35s-.42,5.17-1.27,7.3c-.85,2.13-2.15,3.8-3.89,5.01-1.75,1.21-3.99,1.82-6.73,1.82Zm-2.54-8.21c1.45,0,2.57-.33,3.35-.99.78-.66,1.32-1.47,1.61-2.44.29-.97.44-1.9.44-2.8s-.17-1.77-.52-2.62c-.35-.85-.91-1.54-1.69-2.08-.78-.54-1.83-.8-3.14-.8-1.25,0-2.29.26-3.14.78-.85.52-1.48,1.22-1.9,2.1-.42.88-.62,1.86-.62,2.93,0,1,.2,1.97.6,2.88.4.92,1.01,1.65,1.84,2.21.83.55,1.89.83,3.17.83Z"/>
      <path class="cls-3" d="m127.2,198.51c-1.28,0-2.49-.17-3.64-.52s-2.16-.87-3.04-1.56c-.88-.69-1.58-1.56-2.1-2.6-.52-1.04-.78-2.27-.78-3.69,0-2.08.44-3.7,1.32-4.88.88-1.18,2.08-2.04,3.58-2.6,1.51-.55,3.22-.91,5.14-1.06,1.92-.16,3.92-.23,6-.23h1.25c0-.66-.16-1.25-.47-1.77-.31-.52-.75-.94-1.32-1.25-.57-.31-1.27-.47-2.1-.47-.59,0-1.16.09-1.71.26-.55.17-1.01.41-1.38.7-.36.29-.58.65-.65,1.06h-9.14c.21-1.7.71-3.16,1.51-4.39.8-1.23,1.8-2.23,3.01-3.01,1.21-.78,2.57-1.36,4.08-1.74,1.51-.38,3.07-.57,4.7-.57,4.02,0,7.05,1.12,9.11,3.35,2.06,2.23,3.09,5.51,3.09,9.84v14.7h-8.46v-3.58c-.9,1.35-1.91,2.3-3.04,2.86-1.13.55-2.15.88-3.06.99-.92.1-1.55.16-1.9.16Zm2.49-7.01c.86,0,1.7-.22,2.52-.65.81-.43,1.49-.98,2.03-1.64.54-.66.8-1.32.8-1.97v-.21h-5.14c-.42,0-.81.04-1.19.13-.38.09-.72.22-1.01.39-.29.17-.53.4-.7.67-.17.28-.26.62-.26,1.04,0,.49.13.89.39,1.22.26.33.61.58,1.06.75.45.17.95.26,1.51.26Z"/>
      <path class="cls-3" d="m165.83,198.51c-.66,0-1.45-.04-2.39-.13-.93-.09-1.91-.36-2.93-.83-1.02-.47-2.02-1.24-2.99-2.31v2.86h-9.04v-36.77h9.19v12.1c1.14-1.14,2.43-1.97,3.87-2.49,1.44-.52,2.95-.78,4.54-.78,2.63,0,4.8.62,6.52,1.84,1.71,1.23,2.99,2.91,3.84,5.04.85,2.13,1.27,4.58,1.27,7.35s-.42,5.17-1.27,7.3c-.85,2.13-2.15,3.8-3.89,5.01-1.75,1.21-3.99,1.82-6.73,1.82Zm-2.54-8.21c1.45,0,2.57-.33,3.35-.99.78-.66,1.32-1.47,1.61-2.44.29-.97.44-1.9.44-2.8s-.17-1.77-.52-2.62c-.35-.85-.91-1.54-1.69-2.08-.78-.54-1.83-.8-3.14-.8-1.25,0-2.29.26-3.14.78-.85.52-1.48,1.22-1.9,2.1-.42.88-.62,1.86-.62,2.93,0,1,.2,1.97.6,2.88.4.92,1.01,1.65,1.84,2.21.83.55,1.89.83,3.17.83Z"/>
      <path class="cls-3" d="m194.5,198.51c-2.8,0-5.25-.56-7.35-1.69-2.1-1.12-3.72-2.73-4.88-4.8-1.16-2.08-1.74-4.55-1.74-7.43s.59-5.39,1.77-7.56c1.18-2.16,2.82-3.85,4.93-5.06s4.57-1.82,7.37-1.82c2.01,0,3.81.31,5.4.94,1.59.62,2.96,1.52,4.1,2.7s2.02,2.6,2.62,4.26c.61,1.66.91,3.53.91,5.61,0,.59-.03,1.15-.08,1.69-.05.54-.15,1.1-.29,1.69h-17.66c.07.66.29,1.28.65,1.87.36.59.87,1.06,1.53,1.4.66.35,1.49.52,2.49.52.83,0,1.55-.09,2.16-.29.6-.19,1.1-.44,1.48-.75.38-.31.62-.62.73-.94h8.98c-.49,2.25-1.38,4.09-2.67,5.53s-2.86,2.48-4.67,3.14c-1.82.66-3.75.99-5.79.99Zm-4.73-17.45h9.24c0-.52-.15-1.06-.44-1.64-.29-.57-.78-1.05-1.45-1.43-.67-.38-1.57-.57-2.67-.57s-1.96.19-2.65.57c-.69.38-1.2.86-1.53,1.43-.33.57-.49,1.12-.49,1.64Z"/>
      <path class="cls-3" d="m222.7,198.51c-1.35,0-2.72-.16-4.1-.47-1.38-.31-2.67-.83-3.87-1.56-1.19-.73-2.21-1.72-3.04-2.99s-1.39-2.85-1.66-4.75h9.3c.14.45.39.85.75,1.19.36.35.81.62,1.35.8.54.19,1.12.29,1.74.29.42,0,.79-.03,1.12-.1.33-.07.61-.18.86-.34.24-.16.42-.34.55-.55.12-.21.18-.43.18-.67,0-.48-.19-.84-.57-1.06-.38-.22-.9-.4-1.56-.52-.66-.12-1.4-.27-2.23-.44-1.28-.28-2.66-.63-4.13-1.06-1.47-.43-2.71-.98-3.71-1.64-.52-.35-.96-.74-1.32-1.17-.36-.43-.66-.91-.88-1.43-.23-.52-.39-1.06-.49-1.61s-.16-1.14-.16-1.77c0-1.59.35-2.93,1.06-4.02.71-1.09,1.63-1.96,2.75-2.62,1.12-.66,2.37-1.13,3.74-1.43,1.37-.29,2.71-.44,4.02-.44,1.94,0,3.75.31,5.43.94,1.68.62,3.08,1.63,4.21,3.01,1.12,1.38,1.83,3.22,2.1,5.5h-8.88c-.07-.62-.41-1.11-1.01-1.45-.61-.35-1.34-.52-2.21-.52-.35,0-.67.04-.96.1-.29.07-.55.16-.78.26-.23.1-.4.24-.52.42-.12.17-.18.36-.18.57,0,.14.04.29.13.47.09.17.25.34.49.49.24.16.57.3.99.44,1.14.28,2.22.52,3.25.73,1.02.21,2.05.42,3.09.62,1.14.21,2.27.56,3.38,1.06,1.11.5,2.03,1.26,2.78,2.26.74,1,1.12,2.41,1.12,4.21s-.36,3.25-1.09,4.44c-.73,1.2-1.69,2.14-2.88,2.83s-2.5,1.19-3.92,1.51c-1.42.31-2.82.47-4.21.47Z"/>
    </g>
  </g>
</svg>